HIERARCHY
ROOT Hips
{
	OFFSET 0.00000 0.00000 0.00000
	CHANNELS 6 Xposition Yposition Zposition Zrotation Yrotation Xrotation 
	JOINT LHipJoint
	{
		OFFSET 0 0 0
		CHANNELS 3 Zrotation Yrotation Xrotation
		JOINT LeftUpLeg
		{
			OFFSET 1.30186 -1.90722 0.65024
			CHANNELS 3 Zrotation Yrotation Xrotation
			JOINT LeftLeg
			{
				OFFSET 2.56413 -7.04489 0.00000
				CHANNELS 3 Zrotation Yrotation Xrotation
				JOINT LeftFoot
				{
					OFFSET 2.79321 -7.67428 0.00000
					CHANNELS 3 Zrotation Yrotation Xrotation
					JOINT LeftToeBase
					{
						OFFSET 0.15723 -0.43198 2.08537
						CHANNELS 3 Zrotation Yrotation Xrotation
						End Site
						{
							OFFSET 0.00000 -0.00000 1.07411
						}
					}
				}
			}
		}
	}
	JOINT RHipJoint
	{
		OFFSET 0 0 0
		CHANNELS 3 Zrotation Yrotation Xrotation
		JOINT RightUpLeg
		{
			OFFSET -1.28627 -1.90723 0.65024
			CHANNELS 3 Zrotation Yrotation Xrotation
			JOINT RightLeg
			{
				OFFSET -2.56567 -7.04913 0.00000
				CHANNELS 3 Zrotation Yrotation Xrotation
				JOINT RightFoot
				{
					OFFSET -2.75597 -7.57198 0.00000
					CHANNELS 3 Zrotation Yrotation Xrotation
					JOINT RightToeBase
					{
						OFFSET -0.17500 -0.48081 2.22901
						CHANNELS 3 Zrotation Yrotation Xrotation
						End Site
						{
							OFFSET -0.00000 -0.00000 1.14762
						}
					}
				}
			}
		}
	}
	JOINT LowerBack
	{
		OFFSET 0 0 0
		CHANNELS 3 Zrotation Yrotation Xrotation
		JOINT Spine
		{
			OFFSET -0.04522 2.07467 -0.16566
			CHANNELS 3 Zrotation Yrotation Xrotation
			JOINT Spine1
			{
				OFFSET -0.01178 2.08825 -0.05393
				CHANNELS 3 Zrotation Yrotation Xrotation
				JOINT Neck
				{
					OFFSET 0 0 0
					CHANNELS 3 Zrotation Yrotation Xrotation
					JOINT Neck1
					{
						OFFSET -0.05182 1.80489 0.16014
						CHANNELS 3 Zrotation Yrotation Xrotation
						JOINT Head
						{
							OFFSET 0.14739 1.78840 -0.33342
							CHANNELS 3 Zrotation Yrotation Xrotation
							End Site
							{
								OFFSET 0.04364 1.83899 -0.13460
							}
						}
					}
				}
				JOINT LeftShoulder
				{
					OFFSET 0 0 0
					CHANNELS 3 Zrotation Yrotation Xrotation
					JOINT LeftArm
					{
						OFFSET 3.01264 1.29090 -0.06579
						CHANNELS 3 Zrotation Yrotation Xrotation
						JOINT LeftForeArm
						{
							OFFSET 5.55680 -0.00000 0.00000
							CHANNELS 3 Zrotation Yrotation Xrotation
							JOINT LeftHand
							{
								OFFSET 3.63979 -0.00000 -0.00000
								CHANNELS 3 Zrotation Yrotation Xrotation
								JOINT LeftFingerBase
								{
									OFFSET 0 0 0
									CHANNELS 3 Zrotation Yrotation Xrotation
									JOINT LeftHandIndex1
									{
										OFFSET 0.56942 -0.00000 -0.00000
										CHANNELS 3 Zrotation Yrotation Xrotation
										End Site
										{
											OFFSET 0.45908 -0.00000 -0.00000
										}
									}
								}
								JOINT LThumb
								{
									OFFSET 0 0 0
									CHANNELS 3 Zrotation Yrotation Xrotation
									End Site
									{
										OFFSET 0.46609 -0.00000 0.46609
									}
								}
							}
						}
					}
				}
				JOINT RightShoulder
				{
					OFFSET 0 0 0
					CHANNELS 3 Zrotation Yrotation Xrotation
					JOINT RightArm
					{
						OFFSET -3.15796 1.37283 -0.36748
						CHANNELS 3 Zrotation Yrotation Xrotation
						JOINT RightForeArm
						{
							OFFSET -5.34339 -0.00000 0.00000
							CHANNELS 3 Zrotation Yrotation Xrotation
							JOINT RightHand
							{
								OFFSET -3.65101 -0.00000 -0.00000
								CHANNELS 3 Zrotation Yrotation Xrotation
								JOINT RightFingerBase
								{
									OFFSET 0 0 0
									CHANNELS 3 Zrotation Yrotation Xrotation
									JOINT RightHandIndex1
									{
										OFFSET -0.69425 -0.00000 -0.00000
										CHANNELS 3 Zrotation Yrotation Xrotation
										End Site
										{
											OFFSET -0.55972 -0.00000 -0.00000
										}
									}
								}
								JOINT RThumb
								{
									OFFSET 0 0 0
									CHANNELS 3 Zrotation Yrotation Xrotation
									End Site
									{
										OFFSET -0.56827 -0.00000 0.56827
									}
								}
							}
						}
					}
				}
			}
		}
	}
}
MOTION
Frames: 11
Frame Time: .0083333
12.9317 17.5412 -21.7435 0 0 0 0 0 0 -21 0 0 0 0 0 0 0 0 0 0 0 0 0 0 21 0 0 0 0 0 0 0 0 0 0 0 0 0 0 0 0 0 0 0 0 0 0 -16 0 0 21 0 0 11 0 0 0 -8 0 0 0 0 0 0 0 0 0 0 0 0 0 0 0 0 0 0 0 0 8 0 0 0 0 0 0 0 0 0 0 0 0 0 0 0 0 0
12.9317 17.5412 -21.7435 0.2263 -31.0536 5.5006 0.0000 0.0000 0.0000 -13.9548 -11.9239 -34.1733 3.7860 11.8700 35.2736 0.1508 -1.8468 -6.9237 0.0678 1.6801 4.6225 0.0000 0.0000 0.0000 21.8682 2.7280 -1.1758 -5.6484 -14.0787 43.5538 -0.0052 2.7275 4.1975 -0.0183 0.8736 -2.4011 2.4582 1.4781 8.9598 1.8558 2.1691 3.3621 0.3171 1.0675 -1.5162 4.4667 5.7413 -10.6064 -11.8379 9.1965 16.4834 -3.6945 3.6517 7.5898 0.0000 -0.0000 0.0000 -84.3802 0.8004 32.1202 15.0270 -24.1838 -3.2370 -0.0000 -0.0000 0.1770 23.0955 19.7504 8.2001 -7.1250 0.0000 -0.0000 -5.3441 51.2252 -0.8215 0.0000 -0.0000 0.0000 80.3457 -1.6871 17.3642 -22.1811 33.1811 -6.6847 0.0000 -0.0000 -0.0827 -11.7616 34.2854 -6.6896 7.1250 -0.0000 -0.0000 11.4627 4.2587 12.5279
12.8564 17.5000 -21.5383 0.8482 -31.0296 4.5289 0.0000 0.0000 0.0000 -14.8106 -11.9572 -33.6891 4.1269 12.3274 36.9003 0.2077 -0.7036 -8.3865 0.0128 -0.7304 -2.0073 0.0000 0.0000 0.0000 20.9934 2.9133 -1.7498 -6.3229 -14.7341 46.2642 -0.0856 2.5149 7.0466 -0.0040 0.4093 -1.1247 1.7879 1.1635 9.1680 1.7864 1.7051 3.2661 0.6614 0.8327 -1.7538 4.4647 5.9620 -9.2288 -12.1551 9.5060 15.9000 -3.7948 3.8436 7.1965 -0.0000 -0.0000 0.0000 -84.8911 1.6901 29.6270 14.9309 -24.0497 -3.1977 -0.0000 -0.0000 0.6351 22.8696 19.6355 8.0671 -7.1250 0.0000 -0.0000 -5.5369 51.0651 -0.8295 -0.0000 -0.0000 0.0000 79.9839 -1.9355 17.7575 -22.2816 33.2938 -6.7398 0.0000 0.0000 0.1381 -11.7703 34.8257 -6.7861 7.1250 -0.0000 -0.0000 11.5089 4.7889 12.6789
12.7813 17.4582 -21.3314 1.6068 -31.0995 3.3740 0.0000 0.0000 0.0000 -15.8887 -11.7107 -32.8413 4.3814 12.6514 38.0770 0.2506 -0.3839 -9.3258 0.1095 -2.1337 -5.8754 0.0000 0.0000 0.0000 19.9741 3.2416 -2.4006 -7.0836 -15.4018 49.1896 -0.1846 2.7716 9.6272 -0.0005 0.1421 -0.3906 0.8743 1.0371 9.6782 1.7105 1.4437 3.9175 1.1215 0.6962 -1.3815 4.3050 6.2905 -11.0057 -12.3522 10.0298 16.0283 -3.7290 3.9952 7.6126 0.0000 -0.0000 0.0000 -84.8566 0.6882 29.7544 14.5375 -23.4979 -3.0391 -0.0000 0.0000 -0.7085 23.6768 18.6955 8.0006 -7.1250 0.0000 -0.0000 -4.4900 50.2056 -0.5771 0.0000 -0.0000 0.0000 79.6974 -0.5693 17.4151 -22.1177 33.1098 -6.6500 0.0000 0.0000 0.1979 -11.8428 35.2635 -6.9027 7.1250 -0.0000 -0.0000 11.5122 5.2286 12.7636
12.7058 17.4174 -21.1297 2.3592 -31.2496 2.2637 0.0000 0.0000 0.0000 -16.9523 -11.3338 -32.0072 4.6220 12.9450 39.1629 0.2688 -1.3636 -9.4091 0.1161 -2.1970 -6.0505 0.0000 0.0000 0.0000 18.9736 3.6442 -3.1149 -7.8338 -15.9956 51.9617 -0.3103 2.8913 11.9912 -0.0058 -0.4901 1.3466 0.0639 1.1259 10.2815 1.5697 1.4904 3.9176 1.4158 0.7145 -1.7297 4.2138 6.2360 -10.2422 -12.4646 9.9296 15.4652 -3.7790 3.9849 7.2845 0.0000 -0.0000 0.0000 -83.3987 -0.2069 36.5171 12.4595 -20.4902 -2.2606 -0.0000 0.0000 -7.6394 25.8831 16.3277 7.7676 -7.1250 0.0000 -0.0000 -1.8353 48.0068 -0.1362 0.0000 -0.0000 0.0000 79.6981 -0.8151 16.7864 -22.1423 33.1374 -6.6634 0.0000 0.0000 0.2480 -12.3730 35.2230 -7.2110 7.1250 -0.0000 -0.0000 11.2217 5.2729 12.4369
12.6253 17.3790 -20.9306 3.3634 -31.4143 1.2098 0.0000 0.0000 0.0000 -18.2803 -10.8002 -31.2317 4.8105 13.1671 39.9974 0.2958 -2.1972 -9.7470 0.1357 -2.3741 -6.5406 0.0000 0.0000 0.0000 17.7546 3.9946 -3.9680 -8.5905 -16.5369 54.6629 -0.4044 3.1117 13.5608 -0.0147 -0.7820 2.1492 -0.9115 1.2132 10.6404 1.3187 1.5030 3.9774 1.6977 0.7165 -1.8820 3.8553 6.1635 -9.9508 -12.3297 9.8372 15.2326 -3.6924 3.9511 7.1243 0.0000 -0.0000 0.0000 -86.0651 1.6825 23.7345 14.8693 -23.9637 -3.1727 -0.0000 -0.0000 4.0408 23.3490 16.8774 7.1436 -7.1250 0.0000 -0.0000 -4.3841 48.2172 -0.3486 0.0000 -0.0000 0.0000 79.9163 -0.9205 16.0150 -22.2111 33.2148 -6.7011 0.0000 0.0000 0.4576 -13.5928 35.1695 -7.9287 7.1250 -0.0000 -0.0000 10.5561 5.4202 11.6982
12.5391 17.3580 -20.7247 4.7154 -31.6156 -0.0004 0.0000 0.0000 0.0000 -19.9443 -10.1784 -30.2533 4.9591 13.3376 40.6459 0.3727 -2.4029 -10.9520 0.2325 -3.1031 -8.5660 0.0000 0.0000 0.0000 16.2048 4.3249 -4.8056 -9.3352 -17.0187 57.2424 -0.3901 3.9065 13.8883 -0.0055 -0.4801 1.3191 -2.0590 1.3890 10.7655 0.8971 1.6052 4.1750 1.8943 0.7592 -1.7665 3.8963 6.1288 -10.1988 -12.3730 9.8053 15.3630 -3.7110 3.9197 7.2124 -0.0000 0.0000 0.0000 -85.6497 1.3935 24.3465 14.4932 -23.4353 -3.0215 -0.0000 -0.0000 2.6849 24.1487 17.2782 7.5850 -7.1250 0.0000 -0.0000 -3.6997 48.7678 -0.3443 -0.0000 0.0000 0.0000 80.3003 -0.9835 15.0646 -22.3676 33.3900 -6.7870 0.0000 0.0000 0.4264 -14.9056 35.2648 -8.7370 7.1250 -0.0000 -0.0000 9.8562 5.7401 10.9487
12.4555 17.3495 -20.5180 5.6444 -31.9226 -0.9199 0.0000 0.0000 0.0000 -21.1409 -9.5147 -29.3012 5.0767 13.4697 41.1531 0.4539 -2.6015 -12.0979 0.3270 -3.6753 -10.1648 0.0000 0.0000 0.0000 15.0958 4.7589 -5.7986 -10.0588 -17.4428 59.6848 -0.2974 4.8087 13.2054 -0.0002 0.0888 -0.2439 -2.6773 1.5952 10.7460 0.5341 1.8057 4.3867 1.8445 0.8507 -1.5514 4.1260 6.1646 -10.2592 -12.5870 9.8381 15.2056 -3.8128 3.9358 7.1984 0.0000 0.0000 0.0000 -85.0688 0.8936 25.3700 14.0327 -22.7815 -2.8408 -0.0000 -0.0000 1.2423 24.5996 17.7472 7.9445 -7.1250 0.0000 -0.0000 -3.3626 49.3422 -0.3604 0.0000 0.0000 0.0000 80.5799 -0.9364 14.1422 -22.3742 33.3974 -6.7907 0.0000 0.0000 0.3950 -15.8740 35.2946 -9.3304 7.1250 -0.0000 -0.0000 9.3357 5.9440 10.3847
12.3789 17.3383 -20.3162 5.9979 -32.3354 -1.3377 0.0000 0.0000 0.0000 -21.7126 -8.9394 -28.5769 5.1670 13.5694 41.5392 0.5140 -2.9403 -12.8546 0.2594 -3.2768 -9.0502 0.0000 0.0000 0.0000 14.5926 5.3415 -6.9900 -10.7406 -17.8058 61.9364 -0.1894 5.1064 11.6744 -0.0071 0.5435 -1.4934 -2.9692 1.5667 10.4996 0.5035 1.7461 4.5812 1.9925 0.8105 -1.2183 3.7420 6.4027 -10.2285 -12.7142 10.2253 14.9723 -3.7480 4.0986 7.1429 0.0000 -0.0000 0.0000 -85.1099 0.5701 24.7334 13.7805 -22.4200 -2.7438 -0.0000 -0.0000 0.9014 24.6247 17.7861 7.9702 -7.1250 0.0000 -0.0000 -3.3465 49.3880 -0.3625 0.0000 -0.0000 0.0000 80.3886 -0.5227 13.7640 -22.1656 33.1637 -6.6762 0.0000 0.0000 0.8793 -16.5989 34.8902 -9.6765 7.1250 -0.0000 -0.0000 8.8904 5.6776 9.8404
12.3041 17.3338 -20.1192 6.2122 -32.6475 -1.5352 0.0000 0.0000 0.0000 -22.1300 -8.3846 -27.9987 5.2334 13.6419 41.8215 0.5490 -3.3061 -13.2581 0.2120 -2.9641 -8.1787 0.0000 0.0000 0.0000 14.2497 5.9441 -8.1926 -11.3705 -18.1116 63.9789 -0.0751 5.0353 9.2626 -0.0285 1.0893 -2.9947 -3.0218 1.6510 10.2551 0.3553 1.8584 4.5719 1.8612 0.8659 -1.0977 3.7905 6.4308 -10.1991 -12.7739 10.3007 15.2628 -3.7697 4.1201 7.2440 0.0000 -0.0000 0.0000 -84.8201 0.6127 24.6938 13.7986 -22.4461 -2.7508 -0.0000 -0.0000 0.3960 25.0089 18.1122 8.2517 -7.1250 0.0000 -0.0000 -3.0407 49.8013 -0.3602 0.0000 -0.0000 0.0000 80.6203 -0.7268 13.1439 -22.2234 33.2286 -6.7079 0.0000 0.0000 1.0265 -17.7323 33.9472 -10.1243 7.1250 -0.0000 -0.0000 8.1467 4.9541 8.9070
12.2264 17.3386 -19.9261 6.4329 -32.8241 -1.6962 0.0000 0.0000 0.0000 -22.5709 -7.6936 -27.4703 5.2758 13.6878 42.0011 0.5853 -3.7278 -13.6644 0.2607 -3.2849 -9.0729 0.0000 0.0000 0.0000 13.8950 6.3930 -9.4795 -11.9331 -18.3622 65.7765 0.0062 4.8706 6.7334 -0.0619 1.6050 -4.4152 -2.9588 1.6328 10.2620 0.1354 1.8352 4.4181 1.5983 0.8614 -1.2513 3.6848 6.4359 -10.2915 -12.6879 10.3634 15.7218 -3.7175 4.1255 7.4046 0.0000 -0.0000 0.0000 -84.7046 0.9262 23.8543 13.8965 -22.5865 -2.7882 -0.0000 -0.0000 0.3207 25.2926 18.6606 8.5977 -7.1250 0.0000 -0.0000 -2.8821 50.4395 -0.3867 0.0000 -0.0000 0.0000 80.9703 -1.1626 13.0941 -22.3736 33.3967 -6.7904 0.0000 0.0000 1.1672 -20.1212 31.7840 -10.9223 7.1250 -0.0000 -0.0000 6.5247 3.2489 6.9281
